<?xml version="1.0" encoding="utf-8"?>
<!-- Generator: Adobe Illustrator 16.0.0, SVG Export Plug-In . SVG Version: 6.00 Build 0)  -->
<!DOCTYPE svg PUBLIC "-//W3C//DTD SVG 1.1//EN" "http://www.w3.org/Graphics/SVG/1.1/DTD/svg11.dtd">
<svg version="1.1" id="Layer_1" xmlns="http://www.w3.org/2000/svg" xmlns:xlink="http://www.w3.org/1999/xlink" x="0px" y="0px"
	 width="16px" height="16px" viewBox="0 0 16 16" enable-background="new 0 0 16 16" xml:space="preserve">
<g>
	<path fill="#FFFFFF" d="M12.973,8.169L8.611,12.53c-0.161,0.161-0.382,0.255-0.609,0.255s-0.449-0.094-0.603-0.255L3.038,8.169
		C2.877,8.015,2.784,7.794,2.784,7.566s0.094-0.449,0.254-0.609l0.496-0.502C3.695,6.3,3.916,6.207,4.144,6.207
		S4.592,6.3,4.747,6.455L8.002,9.71l3.256-3.255c0.153-0.154,0.375-0.248,0.603-0.248S12.31,6.3,12.47,6.455l0.503,0.502
		c0.153,0.161,0.247,0.382,0.247,0.609S13.126,8.015,12.973,8.169z"/>
</g>
</svg>
